<svg viewBox="0 0 297 297" fill="none" xmlns="http://www.w3.org/2000/svg">
<rect width="297" height="297" fill="#01BAD8"/>
<path fill-rule="evenodd" clip-rule="evenodd" d="M245.901 136.737C247.8 136.229 249.752 137.356 250.261 139.254C250.821 141.347 250.603 143.425 249.497 145.232C248.467 146.917 246.883 148.01 245.361 148.738C242.368 150.17 238.406 150.756 234.836 151.002C231.16 151.256 227.44 151.174 224.671 151.035C223.279 150.965 222.11 150.879 221.285 150.811C220.872 150.776 220.544 150.746 220.317 150.725L220.053 150.698L219.981 150.691L219.952 150.688C219.952 150.688 219.95 150.688 220.328 147.174L219.952 150.688C217.997 150.478 216.58 148.724 216.79 146.77C217 144.816 218.754 143.402 220.709 143.611M245.901 136.737C244.001 137.245 242.873 139.196 243.382 141.094ZM243.382 141.094C243.449 141.348 243.438 141.466 243.435 141.486ZM243.435 141.486C243.434 141.494 243.434 141.5 243.422 141.519ZM220.998 143.64L220.775 143.618ZM220.775 143.618L220.722 143.612ZM220.722 143.612L220.709 143.611Z" fill="white"/>
<path fill-rule="evenodd" clip-rule="evenodd" d="M82.2444 119.47C82.9165 118.569 83.9744 118.039 85.0983 118.039H99.0558C99.987 118.039 100.881 118.404 101.546 119.055L113.814 131.057C136.321 128.789 157.549 127.125 178.289 125.734C178.29 125.734 178.289 125.734 178.289 125.734L219.521 122.958C219.568 122.955 219.615 122.953 219.662 122.952C232.019 122.61 239.655 126.197 244.241 130.311C246.497 132.334 247.923 134.404 248.796 136.011C249.115 136.598 249.361 137.124 249.547 137.566C249.978 137.858 250.525 138.238 251.156 138.695C252.705 139.817 254.785 141.423 256.882 143.342C258.963 145.249 261.152 147.548 262.843 150.068C264.508 152.549 265.906 155.562 265.906 158.822C265.906 161.213 264.675 163.058 263.235 164.34C261.837 165.585 260.032 166.51 258.181 167.228C254.457 168.671 249.602 169.629 244.726 170.277C234.921 171.579 224.067 171.745 219.612 171.559L219.582 171.558L203.747 170.763L147.904 208.392C147.316 208.788 146.623 209 145.913 209H118.497C117.1 209 115.833 208.184 115.255 206.914C114.677 205.643 114.896 204.153 115.814 203.101L146.673 167.764L120.806 166.433L96.8008 165.151C95.2971 165.071 94.0065 164.054 93.5776 162.612L81.6852 122.612C81.365 121.535 81.5723 120.37 82.2444 119.47ZM244.711 142.901C244.71 142.901 244.711 142.902 244.711 142.901ZM244.711 142.901L244.737 142.918L244.848 142.989C244.949 143.055 245.102 143.155 245.302 143.289C245.701 143.556 246.279 143.953 246.977 144.458C248.379 145.474 250.233 146.907 252.071 148.59C253.924 150.287 255.67 152.156 256.929 154.033C258.182 155.9 258.754 157.478 258.783 158.723C258.744 158.78 258.661 158.88 258.497 159.027C258 159.469 257.079 160.021 255.605 160.592C252.679 161.726 248.491 162.597 243.788 163.221C234.449 164.462 224.025 164.618 219.924 164.449C219.919 164.448 219.914 164.448 219.909 164.448L202.919 163.595C202.15 163.557 201.389 163.768 200.75 164.199L144.825 201.883H126.331L156.857 166.927C157.753 165.901 157.984 164.453 157.452 163.198C156.92 161.944 155.719 161.103 154.357 161.033L121.179 159.325L99.6884 158.178L89.8708 125.157H97.6032L110.024 137.308C110.78 138.047 111.824 138.413 112.876 138.306C135.897 135.962 157.574 134.257 178.767 132.835L219.928 130.064C230.67 129.781 236.44 132.876 239.485 135.608C241.048 137.01 241.993 138.405 242.538 139.407C242.811 139.909 242.982 140.311 243.078 140.561C243.126 140.687 243.155 140.773 243.168 140.815C243.171 140.824 243.173 140.831 243.175 140.836" fill="white"/>
<path fill-rule="evenodd" clip-rule="evenodd" d="M132.434 98.4101C133.066 97.2798 134.266 96.5789 135.568 96.5789H157.379C158.032 96.5789 158.672 96.756 159.231 97.091L204.789 124.386C206.486 125.403 207.031 127.593 206.008 129.278C204.985 130.963 202.78 131.505 201.084 130.489L156.381 103.706H142.017L157.054 127.767C158.099 129.439 157.582 131.636 155.899 132.674C154.215 133.712 152.004 133.198 150.959 131.526L132.521 102.022C131.834 100.923 131.801 99.5404 132.434 98.4101Z" fill="white"/>
<path fill-rule="evenodd" clip-rule="evenodd" d="M146.768 147.149C146.768 145.184 148.362 143.591 150.329 143.591H156.382C158.348 143.591 159.942 145.184 159.942 147.149C159.942 149.115 158.348 150.708 156.382 150.708H150.329C148.362 150.708 146.768 149.115 146.768 147.149Z" fill="white"/>
<path fill-rule="evenodd" clip-rule="evenodd" d="M164.429 147.149C164.429 145.184 166.023 143.591 167.989 143.591H173.757C175.724 143.591 177.318 145.184 177.318 147.149C177.318 149.115 175.724 150.708 173.757 150.708H167.989C166.023 150.708 164.429 149.115 164.429 147.149Z" fill="white"/>
<path fill-rule="evenodd" clip-rule="evenodd" d="M181.804 147.149C181.804 145.184 183.399 143.591 185.365 143.591H191.133C193.1 143.591 194.694 145.184 194.694 147.149C194.694 149.115 193.1 150.708 191.133 150.708H185.365C183.399 150.708 181.804 149.115 181.804 147.149Z" fill="white"/>
<path fill-rule="evenodd" clip-rule="evenodd" d="M199.18 147.149C199.18 145.184 200.774 143.591 202.741 143.591H208.723C210.689 143.591 212.283 145.184 212.283 147.149C212.283 149.115 210.689 150.708 208.723 150.708H202.741C200.774 150.708 199.18 149.115 199.18 147.149Z" fill="white"/>
<path fill-rule="evenodd" clip-rule="evenodd" d="M55.6395 100.673C55.6395 98.7071 57.2336 97.1138 59.2001 97.1138H94.5925C96.559 97.1138 98.1531 98.7071 98.1531 100.673C98.1531 102.638 96.559 104.231 94.5925 104.231H59.2001C57.2336 104.231 55.6395 102.638 55.6395 100.673Z" fill="white"/>
<path fill-rule="evenodd" clip-rule="evenodd" d="M55.6395 205.441C55.6395 203.476 57.2336 201.883 59.2001 201.883H94.5925C96.559 201.883 98.1531 203.476 98.1531 205.441C98.1531 207.407 96.559 209 94.5925 209H59.2001C57.2336 209 55.6395 207.407 55.6395 205.441Z" fill="white"/>
<path fill-rule="evenodd" clip-rule="evenodd" d="M31 147.576C31 145.611 32.5941 144.018 34.5606 144.018H69.953C71.9195 144.018 73.5136 145.611 73.5136 147.576C73.5136 149.542 71.9195 151.135 69.953 151.135H34.5606C32.5941 151.135 31 149.542 31 147.576Z" fill="white"/>
</svg>
