<svg viewBox="0 0 297 297" fill="none" xmlns="http://www.w3.org/2000/svg">
<g clip-path="url(#clip0)">
<path d="M0 0H297V297H0V0Z" fill="white"/>
<rect width="390.331" height="390.331" transform="matrix(-0.707107 0.707107 0.707107 0.707107 147.005 -20)" fill="url(#paint0_linear)"/>
<rect width="390.331" height="390.331" transform="matrix(-0.707107 0.707107 0.707107 0.707107 251.005 -286)" fill="url(#paint1_linear)"/>
<path fill-rule="evenodd" clip-rule="evenodd" d="M82.2444 114.891C82.9164 113.991 83.9743 113.46 85.0982 113.46H99.0558C99.9869 113.46 100.881 113.825 101.546 114.476L113.814 126.478C136.321 124.21 157.549 122.546 178.289 121.155L219.521 118.379C219.568 118.376 219.615 118.374 219.662 118.373C232.019 118.031 239.655 121.618 244.241 125.732C246.497 127.755 247.923 129.825 248.796 131.432C249.115 132.019 249.361 132.546 249.547 132.987C249.978 133.279 250.525 133.659 251.156 134.116C252.705 135.238 254.785 136.844 256.882 138.763C258.963 140.67 261.152 142.969 262.843 145.489C264.508 147.97 265.906 150.983 265.906 154.243C265.906 156.634 264.675 158.479 263.235 159.761C261.837 161.006 260.031 161.931 258.181 162.649C254.457 164.092 249.602 165.05 244.726 165.698C234.921 167 224.067 167.166 219.612 166.98L219.582 166.979L203.747 166.184L147.904 203.813C147.316 204.209 146.623 204.421 145.913 204.421H118.497C117.1 204.421 115.833 203.605 115.255 202.335C114.677 201.064 114.896 199.574 115.814 198.522L146.673 163.186L120.806 161.854L96.8007 160.573C95.2971 160.492 94.0065 159.475 93.5775 158.033L81.6851 118.033C81.365 116.956 81.5723 115.791 82.2444 114.891Z" fill="white"/>
<path fill-rule="evenodd" clip-rule="evenodd" d="M132.434 93.8312C133.066 92.7009 134.266 92 135.568 92H157.379C158.032 92 158.672 92.177 159.231 92.512L204.789 119.807C206.486 120.824 207.031 123.014 206.008 124.699C204.985 126.384 202.78 126.926 201.084 125.91L181 121.5L157.054 123.188C158.099 124.86 157.582 127.057 155.899 128.095C154.215 129.133 152.004 128.619 150.959 126.947L132.521 97.4427C131.834 96.3438 131.801 94.9615 132.434 93.8312Z" fill="white"/>
<path fill-rule="evenodd" clip-rule="evenodd" d="M146.768 142.571C146.768 140.605 148.362 139.012 150.329 139.012H156.382C158.348 139.012 159.942 140.605 159.942 142.571C159.942 144.536 158.348 146.129 156.382 146.129H150.329C148.362 146.129 146.768 144.536 146.768 142.571Z" fill="#01BAD8"/>
<path fill-rule="evenodd" clip-rule="evenodd" d="M164.429 142.571C164.429 140.605 166.023 139.012 167.989 139.012H173.757C175.724 139.012 177.318 140.605 177.318 142.571C177.318 144.536 175.724 146.129 173.757 146.129H167.989C166.023 146.129 164.429 144.536 164.429 142.571Z" fill="#01BAD8"/>
<path fill-rule="evenodd" clip-rule="evenodd" d="M181.804 142.571C181.804 140.605 183.398 139.012 185.365 139.012H191.133C193.1 139.012 194.694 140.605 194.694 142.571C194.694 144.536 193.1 146.129 191.133 146.129H185.365C183.398 146.129 181.804 144.536 181.804 142.571Z" fill="#01BAD8"/>
<path fill-rule="evenodd" clip-rule="evenodd" d="M199.18 142.571C199.18 140.605 200.774 139.012 202.741 139.012H208.723C210.689 139.012 212.283 140.605 212.283 142.571C212.283 144.536 210.689 146.129 208.723 146.129H202.741C200.774 146.129 199.18 144.536 199.18 142.571Z" fill="#01BAD8"/>
<path fill-rule="evenodd" clip-rule="evenodd" d="M245.901 132.158C247.8 131.65 249.752 132.777 250.261 134.675C250.821 136.768 250.603 138.846 249.497 140.653C248.467 142.338 246.883 143.431 245.361 144.159C242.368 145.591 238.406 146.177 234.836 146.423C231.16 146.677 227.44 146.595 224.671 146.456C223.279 146.386 222.109 146.3 221.284 146.232C220.872 146.197 220.544 146.167 220.317 146.146L220.053 146.12L219.981 146.112L219.952 146.109C219.952 146.109 219.95 146.109 220.328 142.595L219.952 146.109C217.996 145.899 216.58 144.145 216.79 142.191C217 140.237 218.754 138.823 220.709 139.032M243.435 136.907C243.434 136.915 243.434 136.921 243.422 136.94ZM220.998 139.061L220.775 139.039ZM220.775 139.039L220.722 139.033ZM220.722 139.033L220.709 139.032Z" fill="#01BAD8"/>
<path fill-rule="evenodd" clip-rule="evenodd" d="M55.6395 96.0936C55.6395 94.1282 57.2337 92.5349 59.2001 92.5349H94.5926C96.559 92.5349 98.1532 94.1282 98.1532 96.0936C98.1532 98.0591 96.559 99.6524 94.5926 99.6524H59.2001C57.2337 99.6524 55.6395 98.0591 55.6395 96.0936Z" fill="white"/>
<path fill-rule="evenodd" clip-rule="evenodd" d="M55.6395 200.862C55.6395 198.897 57.2337 197.304 59.2001 197.304H94.5926C96.559 197.304 98.1532 198.897 98.1532 200.862C98.1532 202.828 96.559 204.421 94.5926 204.421H59.2001C57.2337 204.421 55.6395 202.828 55.6395 200.862Z" fill="white"/>
<path fill-rule="evenodd" clip-rule="evenodd" d="M31 142.998C31 141.032 32.5941 139.439 34.5606 139.439H69.953C71.9195 139.439 73.5136 141.032 73.5136 142.998C73.5136 144.963 71.9195 146.556 69.953 146.556H34.5606C32.5941 146.556 31 144.963 31 142.998Z" fill="white"/>
</g>
<defs>
<linearGradient id="paint0_linear" x1="341.183" y1="185.612" x2="-187.379" y2="187.379" gradientUnits="userSpaceOnUse">
<stop stop-color="#37C5DF"/>
<stop offset="1" stop-color="#A0E5F0"/>
</linearGradient>
<linearGradient id="paint1_linear" x1="392.095" y1="213.896" x2="-63.2822" y2="223.795" gradientUnits="userSpaceOnUse">
<stop offset="0.0031268" stop-color="#01A7C2"/>
<stop offset="1" stop-color="#99F1FF"/>
</linearGradient>
<clipPath id="clip0">
<rect width="297" height="297" fill="white"/>
</clipPath>
</defs>
</svg>
